{"title":"Bob's Burgers 302 720p XBOX360/PS3 READY","uid":7936837,"size":401493820,"categoryP":"video","categoryS":"hd___tv_shows","magnet":"?xt=urn:btih:9fe869e1f58cbee1fcb9026b1397ae5fa935baca&amp;dn=Bob%27s+Burgers+302+720p+XBOX360%2FPS3+READY&amp;tr=udp%3A%2F%2Ftracker.openbittorrent.com%3A80&amp;tr=udp%3A%2F%2Fopen.demonii.com%3A1337&amp;tr=udp%3A%2F%2Ftracker.coppersurfer.tk%3A6969&amp;tr=udp%3A%2F%2Fexodus.desync.com%3A6969","seeders":1,"leechers":0,"uploader":"Danimal1q2w3","files":1,"time":1355879456,"description":"Season 3 Episode 2\n\nSEED\n\nVideo\nID                                       : 0\nFormat                                   : MPEG-4 Visual\nFormat profile                           : Simple@L3\nFormat settings, BVOP                    : No\nFormat settings, QPel                    : No\nFormat settings, GMC                     : No warppoints\nFormat settings, Matrix                  : Default (H.263)\nCodec ID                                 : XVID\nCodec ID/Hint                            : XviD\nDuration                                 : 21mn 24s\nSource duration                          : 21mn 24s\nBit rate                                 : 2 178 Kbps\nWidth                                    : 1 280 pixels\nHeight                                   : 720 pixels\nDisplay aspect ratio                     : 16:9\nFrame rate                               : 24.000 fps\nColor space                              : YUV\nChroma subsampling                       : 4:2:0\nBit depth                                : 8 bits\nScan type                                : Progressive\nCompression mode                         : Lossy\nBits/(Pixel*Frame)                       : 0.098\nStream size                              : 333 MiB (87%)\nWriting library                          : XviD 63\n\nAudio\nID                                       : 1\nFormat                                   : MPEG Audio\nFormat version                           : Version 1\nFormat profile                           : Layer 3\nMode                                     : Joint stereo\nMode extension                           : MS Stereo\nCodec ID                                 : 55\nCodec ID/Hint                            : MP3\nDuration                                 : 21mn 24s\nBit rate mode                            : Variable\nBit rate                                 : 310 Kbps\nChannel(s)                               : 2 channels\nSampling rate                            : 48.0 KHz\nCompression mode                         : Lossy\nStream size                              : 47.5 MiB (12%)\nAlignment                                : Aligned on interleaves\nInterleave, duration                     : 24 ms (0.58 video frame)\nInterleave, preload duration             : 51 ms\nWriting library                          : LAME3.98.4\n","torrent":{"xt":"urn:btih:9fe869e1f58cbee1fcb9026b1397ae5fa935baca","amp;dn":"Bob%27s+Burgers+302+720p+XBOX360%2FPS3+READY","amp;tr":["udp%3A%2F%2Ftracker.openbittorrent.com%3A80","udp%3A%2F%2Fopen.demonii.com%3A1337","udp%3A%2F%2Ftracker.coppersurfer.tk%3A6969","udp%3A%2F%2Fexodus.desync.com%3A6969"],"infoHash":"9fe869e1f58cbee1fcb9026b1397ae5fa935baca","infoHashBuffer":{"type":"Buffer","data":[159,232,105,225,245,140,190,225,252,185,2,107,19,151,174,95,169,53,186,202]},"announce":[],"urlList":[]}}